<?xml version="1.0" standalone="no"?>
<!DOCTYPE svg PUBLIC "-//W3C//DTD SVG 20010904//EN"
 "http://www.w3.org/TR/2001/REC-SVG-20010904/DTD/svg10.dtd">
<svg version="1.0" xmlns="http://www.w3.org/2000/svg"
 width="114.000000pt" height="114.000000pt" viewBox="0 0 114.000000 114.000000"
 preserveAspectRatio="xMidYMid meet">
<metadata>
Created by potrace 1.14, written by Peter Selinger 2001-2017
</metadata>
<g transform="translate(0.000000,114.000000) scale(0.100000,-0.100000)"
fill="#000000" stroke="none">
<path d="M544 1115 c-39 -16 -57 -38 -94 -114 -39 -78 -46 -172 -23 -296 22
-120 28 -139 55 -178 17 -24 18 -28 3 -33 -13 -5 -12 -10 10 -32 23 -23 24
-26 8 -38 -17 -12 -17 -13 3 -14 28 0 44 -20 47 -59 1 -17 5 -31 10 -31 6 0 8
63 10 358 1 61 4 112 8 112 4 0 6 -95 5 -210 l-2 -210 35 34 c34 34 34 36 17
55 -16 18 -16 20 12 40 38 27 40 26 35 -4 -3 -13 0 -38 5 -55 10 -27 7 -35
-25 -77 -20 -27 -43 -52 -52 -58 -24 -14 -41 -15 -41 -2 0 9 -2 9 -8 1 -9 -14
-43 -14 -60 -1 -7 5 -26 30 -43 55 -24 36 -29 51 -23 76 13 58 10 81 -24 186
-47 146 -48 256 -2 403 11 34 20 63 20 65 0 12 -104 -55 -137 -88 -70 -70 -88
-118 -87 -235 0 -92 2 -105 31 -165 34 -70 89 -136 138 -166 l30 -19 -27 35
c-35 46 -76 148 -83 202 -5 42 -4 42 5 7 15 -58 94 -219 143 -292 35 -51 46
-76 45 -102 -1 -27 -6 -35 -20 -35 -14 0 -18 -8 -18 -32 0 -73 1 -73 106 -71
52 1 101 3 107 6 8 3 12 24 12 53 0 41 -3 49 -19 49 -12 0 -20 8 -22 22 -2 12
-5 26 -6 32 -5 17 87 128 125 150 65 38 145 156 162 239 31 150 -7 267 -116
354 -55 43 -119 73 -104 48 23 -37 47 -157 50 -248 3 -89 0 -113 -22 -180 -25
-76 -50 -122 -39 -72 20 89 29 176 28 280 0 57 -6 87 -24 125 -57 123 -90 153
-144 130z m277 -501 c-14 -54 -50 -129 -80 -164 -12 -15 0 19 29 80 27 58 50
114 50 124 0 11 3 17 6 13 4 -3 1 -27 -5 -53z"/>
<path d="M499 49 c-7 -4 -11 -11 -7 -14 10 -11 120 -7 131 4 13 13 11 13 -59
16 -28 2 -57 -1 -65 -6z"/>
</g>
</svg>
