<svg width="22" height="22" viewBox="0 0 22 22" fill="none" xmlns="http://www.w3.org/2000/svg">
<path d="M14.2268 6.48265C16.7217 6.48265 18.7441 5.76033 18.7441 4.86931C18.7441 3.9783 16.7217 3.25598 14.2268 3.25598C11.732 3.25598 9.70947 3.9783 9.70947 4.86931C9.70947 5.76033 11.732 6.48265 14.2268 6.48265Z" stroke="#0499DD" stroke-width="0.6" stroke-miterlimit="10" stroke-linecap="round" stroke-linejoin="round"/>
<path d="M9.70947 5.19202C9.70947 5.48629 9.70947 6.83374 9.70947 7.12802C9.70947 8.0189 11.7313 8.74135 14.2268 8.74135C16.7223 8.74135 18.7441 8.0189 18.7441 7.12802C18.7441 6.83374 18.7441 5.48629 18.7441 5.19202" stroke="#0499DD" stroke-width="0.6" stroke-miterlimit="10" stroke-linecap="round" stroke-linejoin="round"/>
<path d="M12.1455 10.8189C12.7683 10.9344 13.4762 10.9999 14.2267 10.9999C16.7222 10.9999 18.744 10.2774 18.744 9.38656C18.744 9.09229 18.744 7.74483 18.744 7.45056" stroke="#0499DD" stroke-width="0.6" stroke-miterlimit="10" stroke-linecap="round" stroke-linejoin="round"/>
<path d="M9.70947 7.45056C9.70947 7.74483 9.70947 8.82835 9.70947 8.82835" stroke="#0499DD" stroke-width="0.6" stroke-miterlimit="10" stroke-linecap="round" stroke-linejoin="round"/>
<path d="M12.2988 13.1048C12.8835 13.2035 13.5369 13.2587 14.2268 13.2587C16.7223 13.2587 18.7441 12.5366 18.7441 11.6453C18.7441 11.3511 18.7441 10.0036 18.7441 9.70935" stroke="#0499DD" stroke-width="0.6" stroke-miterlimit="10" stroke-linecap="round" stroke-linejoin="round"/>
<path d="M12.2739 15.3592C12.8647 15.4606 13.5272 15.5174 14.2267 15.5174C16.7222 15.5174 18.744 14.7952 18.744 13.904C18.744 13.6097 18.744 12.2623 18.744 11.968" stroke="#0499DD" stroke-width="0.6" stroke-miterlimit="10" stroke-linecap="round" stroke-linejoin="round"/>
<path d="M7.77319 11.968C10.268 11.968 12.2905 11.2457 12.2905 10.3547C12.2905 9.46365 10.268 8.74133 7.77319 8.74133C5.27834 8.74133 3.25586 9.46365 3.25586 10.3547C3.25586 11.2457 5.27834 11.968 7.77319 11.968Z" stroke="#0499DD" stroke-width="0.6" stroke-miterlimit="10" stroke-linecap="round" stroke-linejoin="round"/>
<path d="M3.25586 10.6774C3.25586 10.9716 3.25586 12.3191 3.25586 12.6134C3.25586 13.5046 5.27769 14.2267 7.77319 14.2267C10.2687 14.2267 12.2905 13.5046 12.2905 12.6134C12.2905 12.3191 12.2905 10.9716 12.2905 10.6774" stroke="#0499DD" stroke-width="0.6" stroke-miterlimit="10" stroke-linecap="round" stroke-linejoin="round"/>
<path d="M3.25586 12.9359C3.25586 13.2302 3.25586 14.5776 3.25586 14.8719C3.25586 15.7631 5.27769 16.4852 7.77319 16.4852C10.2687 16.4852 12.2905 15.7631 12.2905 14.8719C12.2905 14.5776 12.2905 13.2302 12.2905 12.9359" stroke="#0499DD" stroke-width="0.6" stroke-miterlimit="10" stroke-linecap="round" stroke-linejoin="round"/>
<path d="M3.25586 15.1947C3.25586 15.489 3.25586 16.8364 3.25586 17.1307C3.25586 18.0219 5.27769 18.744 7.77319 18.744C10.2687 18.744 12.2905 18.0219 12.2905 17.1307C12.2905 16.8364 12.2905 15.489 12.2905 15.1947" stroke="#0499DD" stroke-width="0.6" stroke-miterlimit="10" stroke-linecap="round" stroke-linejoin="round"/>
</svg>
