<svg width="19" height="19" viewBox="0 0 19 19" fill="none" xmlns="http://www.w3.org/2000/svg">
<g clip-path="url(#clip0_43_502)">
<path d="M17.3273 4.72489C17.2923 4.67799 17.2484 4.63845 17.1981 4.60851C17.1479 4.57858 17.0922 4.55884 17.0343 4.55044C16.9764 4.54203 16.9174 4.54511 16.8607 4.55951C16.804 4.5739 16.7507 4.59933 16.7038 4.63434L9.52093 9.9959C9.49524 10.0152 9.46399 10.0256 9.43187 10.0256C9.39975 10.0256 9.3685 10.0152 9.34281 9.9959L2.30093 4.61059C2.25444 4.57511 2.20142 4.54914 2.14489 4.53416C2.08836 4.51917 2.02943 4.51547 1.97147 4.52325C1.91351 4.53104 1.85765 4.55017 1.80709 4.57954C1.75652 4.60892 1.71223 4.64797 1.67675 4.69446C1.64128 4.74095 1.6153 4.79397 1.60032 4.8505C1.58533 4.90703 1.58163 4.96596 1.58942 5.02392C1.5972 5.08188 1.61633 5.13774 1.64571 5.18831C1.67508 5.23887 1.71413 5.28316 1.76062 5.31864L7.29734 9.55356L1.82148 13.6801C1.77431 13.7153 1.73453 13.7594 1.70441 13.81C1.67429 13.8606 1.65443 13.9166 1.64595 13.9748C1.63747 14.033 1.64055 14.0924 1.655 14.1494C1.66946 14.2065 1.69501 14.2601 1.73019 14.3073C1.76538 14.3544 1.80951 14.3942 1.86007 14.4243C1.91063 14.4545 1.96662 14.4743 2.02486 14.4828C2.08309 14.4913 2.14243 14.4882 2.19948 14.4737C2.25652 14.4593 2.31017 14.4337 2.35734 14.3986L8.0321 10.1147L8.80101 10.7084C8.9803 10.8456 9.19941 10.9207 9.42518 10.9224C9.65096 10.924 9.87112 10.852 10.0523 10.7173L10.8598 10.1147L16.6014 14.3986C16.6483 14.4336 16.7016 14.459 16.7583 14.4734C16.815 14.4877 16.874 14.4908 16.9319 14.4824C16.9898 14.474 17.0454 14.4543 17.0957 14.4243C17.146 14.3944 17.1898 14.3549 17.2248 14.308C17.2598 14.2611 17.2852 14.2078 17.2996 14.1511C17.314 14.0944 17.3171 14.0354 17.3087 13.9775C17.3003 13.9197 17.2805 13.864 17.2506 13.8137C17.2207 13.7634 17.1812 13.7196 17.1343 13.6846L11.6035 9.55208L17.2367 5.34387C17.3301 5.27332 17.392 5.1688 17.409 5.05296C17.4259 4.93711 17.3966 4.81925 17.3273 4.72489Z" fill="#282828"/>
<path d="M16.7734 2.82031H2.22656C1.63604 2.82031 1.06971 3.0549 0.652145 3.47246C0.234584 3.89002 0 4.45635 0 5.04688L0 13.9531C0 14.5436 0.234584 15.11 0.652145 15.5275C1.06971 15.9451 1.63604 16.1797 2.22656 16.1797H16.7734C17.364 16.1797 17.9303 15.9451 18.3479 15.5275C18.7654 15.11 19 14.5436 19 13.9531V5.04688C19 4.45635 18.7654 3.89002 18.3479 3.47246C17.9303 3.0549 17.364 2.82031 16.7734 2.82031ZM18.1094 13.9531C18.1094 14.3074 17.9686 14.6472 17.7181 14.8978C17.4676 15.1483 17.1278 15.2891 16.7734 15.2891H2.22656C1.87225 15.2891 1.53245 15.1483 1.28191 14.8978C1.03138 14.6472 0.890625 14.3074 0.890625 13.9531V5.04688C0.890625 4.69256 1.03138 4.35276 1.28191 4.10222C1.53245 3.85169 1.87225 3.71094 2.22656 3.71094H16.7734C17.1278 3.71094 17.4676 3.85169 17.7181 4.10222C17.9686 4.35276 18.1094 4.69256 18.1094 5.04688V13.9531Z" fill="#282828" stroke="#282828" stroke-width="0.5"/>
</g>
<defs>
<clipPath id="clip0_43_502">
<rect width="19" height="19" fill="white"/>
</clipPath>
</defs>
</svg>
