<svg width="15" height="28" viewBox="0 0 15 28" fill="none" xmlns="http://www.w3.org/2000/svg">
<path d="M13.3715 9.72374C13.3836 9.60583 13.2911 9.50333 13.1725 9.50333H9.34863V6.85009C9.34863 5.85367 10.009 5.62137 10.4742 5.62137C10.8565 5.62137 12.5467 5.62137 13.1301 5.62137C13.2406 5.62137 13.329 5.53182 13.329 5.42137V1.44015C13.329 1.33 13.2399 1.24058 13.1298 1.24015L9.39731 1.22559C5.03275 1.22559 4.0395 4.49266 4.0395 6.58339V9.50333H1.71538C1.60492 9.50333 1.51538 9.59287 1.51538 9.70333V13.8171C1.51538 13.9276 1.60492 14.0171 1.71538 14.0171H4.0395C4.0395 19.2361 4.0395 25.4186 4.0395 26.5921C4.0395 26.7026 4.12905 26.7896 4.2395 26.7896H9.14863C9.25908 26.7896 9.34863 26.7024 9.34863 26.592C9.34863 25.4122 9.34863 19.1766 9.34863 14.0171H12.7505C12.8531 14.0171 12.939 13.9395 12.9495 13.8375L13.3715 9.72374Z" stroke="#17C1BC" stroke-width="2"/>
</svg>
