<svg width="15" height="28" viewBox="0 0 15 28" fill="none" xmlns="http://www.w3.org/2000/svg">
<path d="M13.3715 9.72395C13.3836 9.60604 13.2911 9.50354 13.1725 9.50354H9.34863V6.8503C9.34863 5.85389 10.009 5.62158 10.4742 5.62158C10.8565 5.62158 12.5467 5.62158 13.1301 5.62158C13.2406 5.62158 13.329 5.53204 13.329 5.42158V1.44037C13.329 1.33021 13.2399 1.2408 13.1298 1.24037L9.39731 1.2258C5.03275 1.2258 4.0395 4.49287 4.0395 6.5836V9.50354H1.71538C1.60492 9.50354 1.51538 9.59309 1.51538 9.70354V13.8173C1.51538 13.9278 1.60492 14.0173 1.71538 14.0173H4.0395C4.0395 19.2364 4.0395 25.4188 4.0395 26.5923C4.0395 26.7028 4.12905 26.7898 4.2395 26.7898H9.14863C9.25908 26.7898 9.34863 26.7026 9.34863 26.5922C9.34863 25.4125 9.34863 19.1768 9.34863 14.0173H12.7505C12.8531 14.0173 12.939 13.9398 12.9495 13.8377L13.3715 9.72395Z" stroke="white" stroke-width="2"/>
</svg>
