<svg width="28" height="28" viewBox="0 0 28 28" fill="none" xmlns="http://www.w3.org/2000/svg">
<path d="M13.9971 0.34668C10.289 0.34668 9.82407 0.362397 8.3678 0.428842C6.91457 0.495179 5.92206 0.725949 5.05356 1.06349C4.15574 1.41241 3.39433 1.87926 2.6353 2.63828C1.87627 3.39731 1.40942 4.15872 1.0605 5.05654C0.722965 5.92499 0.492195 6.9175 0.425858 8.37073C0.359413 9.827 0.34375 10.292 0.34375 14C0.34375 17.708 0.359413 18.1729 0.425858 19.6292C0.492195 21.0824 0.722965 22.0749 1.0605 22.9434C1.40942 23.8412 1.87627 24.6026 2.6353 25.3617C3.39433 26.1207 4.15574 26.5876 5.05356 26.9365C5.92206 27.274 6.91457 27.5048 8.3678 27.5711C9.82407 27.6375 10.289 27.6533 13.9971 27.6533C17.705 27.6533 18.17 27.6375 19.6263 27.5711C21.0795 27.5048 22.072 27.274 22.9405 26.9365C23.8383 26.5876 24.5997 26.1207 25.3588 25.3617C26.1178 24.6026 26.5847 23.8412 26.9336 22.9434C27.2711 22.0749 27.5019 21.0824 27.5682 19.6292C27.6346 18.1729 27.6503 17.708 27.6503 14C27.6503 10.292 27.6346 9.827 27.5682 8.37073C27.5019 6.9175 27.2711 5.92499 26.9336 5.05654C26.5847 4.15872 26.1178 3.39731 25.3588 2.63828C24.5997 1.87926 23.8383 1.41241 22.9405 1.06349C22.072 0.725949 21.0795 0.495179 19.6263 0.428842C18.17 0.362397 17.705 0.34668 13.9971 0.34668ZM13.9971 2.80678C17.6426 2.80678 18.0745 2.82066 19.5141 2.88634C20.8453 2.9471 21.5683 3.16952 22.0494 3.35645C22.6867 3.60412 23.1415 3.90004 23.6192 4.37778C24.097 4.85553 24.3929 5.3104 24.6406 5.94765C24.8275 6.42875 25.05 7.15169 25.1107 8.48287C25.1763 9.92255 25.1903 10.3544 25.1903 14C25.1903 17.6455 25.1763 18.0774 25.1107 19.5171C25.05 20.8482 24.8275 21.5712 24.6406 22.0523C24.3929 22.6896 24.097 23.1444 23.6192 23.6222C23.1415 24.0999 22.6867 24.3958 22.0494 24.6435C21.5683 24.8305 20.8453 25.0529 19.5141 25.1136C18.0747 25.1793 17.6429 25.1932 13.9971 25.1932C10.3512 25.1932 9.91946 25.1793 8.47994 25.1136C7.14876 25.0529 6.42582 24.8305 5.94472 24.6435C5.30742 24.3958 4.8526 24.0999 4.3748 23.6222C3.89706 23.1444 3.60114 22.6896 3.35352 22.0523C3.16654 21.5712 2.94411 20.8482 2.88336 19.5171C2.81767 18.0774 2.8038 17.6455 2.8038 14C2.8038 10.3544 2.81767 9.92255 2.88336 8.48287C2.94411 7.15169 3.16654 6.42875 3.35352 5.94765C3.60114 5.3104 3.89706 4.85553 4.3748 4.37778C4.8526 3.90004 5.30742 3.60412 5.94472 3.35645C6.42582 3.16952 7.14876 2.9471 8.47994 2.88634C9.91962 2.82066 10.3515 2.80678 13.9971 2.80678Z" fill="white"/>
<path d="M13.9955 18.551C11.482 18.551 9.44442 16.5134 9.44442 13.9999C9.44442 11.4864 11.482 9.44882 13.9955 9.44882C16.509 9.44882 18.5466 11.4864 18.5466 13.9999C18.5466 16.5134 16.509 18.551 13.9955 18.551ZM13.9955 6.98877C10.1233 6.98877 6.98438 10.1277 6.98438 13.9999C6.98438 17.8721 10.1233 21.0111 13.9955 21.0111C17.8677 21.0111 21.0067 17.8721 21.0067 13.9999C21.0067 10.1277 17.8677 6.98877 13.9955 6.98877Z" fill="white"/>
<path d="M22.9252 6.71186C22.9252 7.61673 22.1917 8.35023 21.2868 8.35023C20.382 8.35023 19.6484 7.61673 19.6484 6.71186C19.6484 5.80699 20.382 5.07349 21.2868 5.07349C22.1917 5.07349 22.9252 5.80699 22.9252 6.71186Z" fill="white"/>
</svg>
