<svg width="27" height="18" viewBox="0 0 27 18" fill="none" xmlns="http://www.w3.org/2000/svg">
<path d="M25.89 14C24.7066 12.137 23.3215 10.4099 21.76 8.85C21.7316 8.81452 21.7162 8.77044 21.7162 8.725C21.7162 8.67956 21.7316 8.63547 21.76 8.6C23.1037 6.76599 24.2912 4.82251 25.31 2.79C25.4574 2.49916 25.5275 2.17528 25.5135 1.84953C25.4995 1.52378 25.4019 1.20711 25.23 0.929998C25.0733 0.648345 24.8443 0.413645 24.5665 0.25015C24.2887 0.0866553 23.9724 0.000296159 23.65 -2.42495e-06H20.65C20.2694 0.0073844 19.8987 0.12329 19.5816 0.334091C19.2645 0.544891 19.0142 0.841827 18.86 1.19C17.9887 3.11716 16.9444 4.96137 15.74 6.7V1.8C15.7414 1.56325 15.6957 1.32859 15.6057 1.1096C15.5157 0.890617 15.3832 0.691659 15.2158 0.524249C15.0484 0.356838 14.8494 0.224302 14.6304 0.134313C14.4115 0.0443243 14.1768 -0.00132879 13.94 -2.42495e-06H9.56005C9.30507 0.003962 9.05601 0.077496 8.83977 0.212661C8.62352 0.347826 8.4483 0.539488 8.33302 0.766958C8.21775 0.994427 8.16679 1.24906 8.18565 1.50338C8.20451 1.75769 8.29247 2.00202 8.44005 2.21L8.84005 2.77C9.0546 3.07813 9.16976 3.44453 9.17005 3.82V7.66C7.84999 5.70714 6.80045 3.58452 6.05005 1.35C5.91473 0.956242 5.6599 0.614534 5.3211 0.37253C4.98229 0.130527 4.57641 0.000294898 4.16005 -2.42495e-06H1.71005C1.44973 0.00311016 1.19347 0.0649334 0.960374 0.180859C0.727274 0.296785 0.523342 0.463823 0.363778 0.669527C0.204214 0.87523 0.0931326 1.11429 0.0388118 1.3689C-0.0155091 1.6235 -0.0116681 1.88708 0.0500484 2.14C1.40005 7.87 4.23005 12.62 7.82005 15.14C8.0352 15.2928 8.30205 15.3544 8.56243 15.3114C8.82281 15.2683 9.0556 15.124 9.21005 14.91C9.28729 14.8031 9.34262 14.682 9.37288 14.5537C9.40313 14.4253 9.4077 14.2923 9.38632 14.1621C9.36494 14.032 9.31804 13.9074 9.24832 13.7955C9.17859 13.6836 9.08742 13.5865 8.98005 13.51C5.84005 11.31 3.34005 7.12 2.07005 2H4.17005C5.09028 4.79589 6.47647 7.41613 8.27005 9.75C8.47735 10.0149 8.76284 10.2077 9.08597 10.301C9.40911 10.3944 9.75344 10.3835 10.07 10.27C10.3949 10.1567 10.6759 9.94421 10.8733 9.66245C11.0707 9.3807 11.1745 9.044 11.17 8.7V3.82C11.1722 3.1843 11.014 2.55833 10.71 2H13.71V7.43C13.7065 7.81854 13.8308 8.19746 14.064 8.5083C14.2971 8.81915 14.626 9.04464 15 9.15C15.3629 9.27076 15.7554 9.26861 16.117 9.14388C16.4785 9.01916 16.7888 8.77881 17 8.46C18.4204 6.4336 19.6332 4.26936 20.62 2H23.42C22.4669 3.87407 21.3668 5.66969 20.13 7.37C19.8182 7.78719 19.6668 8.30264 19.7035 8.82221C19.7402 9.34178 19.9626 9.83081 20.33 10.2C21.7886 11.6697 23.1014 13.2772 24.25 15H20.9C19.8666 13.2893 18.4788 11.8197 16.83 10.69C16.5827 10.5087 16.2894 10.4005 15.9836 10.3775C15.6778 10.3545 15.3717 10.4178 15.1 10.56C14.8207 10.703 14.5867 10.9209 14.4242 11.1893C14.2617 11.4578 14.1772 11.7662 14.18 12.08V14.46C14.1855 14.5989 14.1362 14.7345 14.0426 14.8373C13.9491 14.9402 13.8189 15.0022 13.68 15.01H12.82C12.5548 15.01 12.3005 15.1154 12.1129 15.3029C11.9254 15.4904 11.82 15.7448 11.82 16.01C11.82 16.2752 11.9254 16.5296 12.1129 16.7171C12.3005 16.9046 12.5548 17.01 12.82 17.01H13.68C14.0118 17.0074 14.3398 16.9393 14.6452 16.8096C14.9506 16.6799 15.2274 16.4912 15.4597 16.2543C15.692 16.0173 15.8752 15.7369 15.9988 15.429C16.1224 15.1211 16.184 14.7918 16.18 14.46V12.69C17.383 13.5948 18.4013 14.7218 19.18 16.01C19.352 16.3079 19.5978 16.5565 19.8939 16.7317C20.1899 16.9069 20.5261 17.0027 20.87 17.01H24.25C24.5957 17.0109 24.9351 16.9184 25.2326 16.7424C25.53 16.5664 25.7744 16.3134 25.94 16.01C26.1099 15.7004 26.1948 15.3513 26.186 14.9983C26.1772 14.6452 26.0751 14.3008 25.89 14Z" fill="white"/>
</svg>
