<svg width="32" height="21" viewBox="0 0 32 21" fill="none" xmlns="http://www.w3.org/2000/svg">
<path d="M31.3068 17.125C29.9014 14.9127 28.2567 12.8618 26.4024 11.0094C26.3687 10.9673 26.3503 10.9149 26.3503 10.861C26.3503 10.807 26.3687 10.7547 26.4024 10.7125C27.9981 8.53465 29.4082 6.22677 30.618 3.81316C30.7931 3.46778 30.8762 3.08318 30.8596 2.69635C30.843 2.30952 30.7271 1.93348 30.523 1.60441C30.337 1.26995 30.0649 0.99124 29.7351 0.79709C29.4052 0.602939 29.0295 0.500388 28.6468 0.500033H25.0843C24.6322 0.508805 24.192 0.646443 23.8155 0.896769C23.439 1.14709 23.1417 1.49971 22.9587 1.91316C21.9239 4.20166 20.6838 6.39167 19.2537 8.45628V2.63753C19.2552 2.35639 19.201 2.07773 19.0942 1.81769C18.9873 1.55764 18.8299 1.32138 18.6311 1.12258C18.4323 0.923782 18.1961 0.766395 17.936 0.659533C17.676 0.552671 17.3973 0.498458 17.1162 0.500033H11.9149C11.6121 0.504741 11.3164 0.592063 11.0596 0.752571C10.8028 0.91308 10.5947 1.14068 10.4578 1.4108C10.3209 1.68092 10.2604 1.9833 10.2828 2.2853C10.3052 2.58729 10.4097 2.87744 10.5849 3.12441L11.0599 3.78941C11.3147 4.15532 11.4514 4.59041 11.4518 5.03628V9.59628C9.88422 7.27727 8.6379 4.75666 7.7468 2.10316C7.58611 1.63557 7.2835 1.2298 6.88116 0.942416C6.47883 0.655037 5.99685 0.500386 5.50242 0.500033H2.59305C2.28392 0.50373 1.97961 0.577145 1.70281 0.714806C1.426 0.852468 1.18383 1.05083 0.99435 1.2951C0.804867 1.53937 0.672958 1.82326 0.608452 2.1256C0.543946 2.42794 0.548507 2.74095 0.621795 3.04128C2.22492 9.84566 5.58555 15.4863 9.84867 18.4788C10.1042 18.6603 10.4211 18.7334 10.7302 18.6823C11.0394 18.6311 11.3159 18.4598 11.4993 18.2057C11.591 18.0787 11.6567 17.9349 11.6927 17.7825C11.7286 17.6301 11.734 17.4721 11.7086 17.3176C11.6832 17.1631 11.6275 17.0151 11.5447 16.8822C11.4619 16.7493 11.3537 16.6341 11.2262 16.5432C7.49742 13.9307 4.52867 8.95503 3.02055 2.87503H5.5143C6.60707 6.19516 8.25318 9.30669 10.383 12.0782C10.6292 12.3927 10.9682 12.6216 11.352 12.7325C11.7357 12.8434 12.1446 12.8305 12.5205 12.6957C12.9063 12.5612 13.24 12.3088 13.4744 11.9742C13.7089 11.6396 13.8321 11.2398 13.8268 10.8313V5.03628C13.8293 4.28139 13.6415 3.53806 13.2805 2.87503H16.843V9.32316C16.8388 9.78455 16.9865 10.2345 17.2633 10.6036C17.5402 10.9728 17.9308 11.2405 18.3749 11.3657C18.8058 11.5091 19.272 11.5065 19.7013 11.3584C20.1306 11.2103 20.4991 10.9249 20.7499 10.5463C22.4366 8.13994 23.8768 5.5699 25.0487 2.87503H28.3737C27.2418 5.10049 25.9354 7.23279 24.4668 9.25191C24.0965 9.74732 23.9167 10.3594 23.9603 10.9764C24.0039 11.5934 24.268 12.1741 24.7043 12.6125C26.4363 14.3579 27.9952 16.2668 29.3593 18.3125H25.3812C24.1539 16.2811 22.5059 14.5359 20.548 13.1944C20.2543 12.9792 19.9061 12.8506 19.5429 12.8233C19.1798 12.796 18.8163 12.8711 18.4937 13.04C18.1619 13.2098 17.884 13.4686 17.6911 13.7874C17.4981 14.1062 17.3977 14.4724 17.4012 14.845V17.6713C17.4077 17.8363 17.3491 17.9972 17.238 18.1194C17.1269 18.2416 16.9723 18.3152 16.8074 18.3244H15.7862C15.4712 18.3244 15.1692 18.4495 14.9465 18.6722C14.7238 18.8949 14.5987 19.197 14.5987 19.5119C14.5987 19.8269 14.7238 20.1289 14.9465 20.3516C15.1692 20.5743 15.4712 20.6994 15.7862 20.6994H16.8074C17.2014 20.6963 17.5909 20.6154 17.9536 20.4614C18.3162 20.3074 18.6449 20.0833 18.9207 19.802C19.1966 19.5206 19.4141 19.1876 19.5609 18.8219C19.7077 18.4563 19.7809 18.0653 19.7762 17.6713V15.5694C21.2046 16.6439 22.414 17.9822 23.3387 19.5119C23.5428 19.8657 23.8348 20.1609 24.1863 20.3689C24.5379 20.5769 24.9371 20.6908 25.3455 20.6994H29.3593C29.7697 20.7004 30.1728 20.5906 30.526 20.3816C30.8793 20.1726 31.1695 19.8722 31.3662 19.5119C31.5679 19.1442 31.6687 18.7297 31.6582 18.3105C31.6478 17.8912 31.5265 17.4822 31.3068 17.125Z" fill="#BC0000"/>
</svg>
