<svg width="19" height="19" viewBox="0 0 19 19" fill="none" xmlns="http://www.w3.org/2000/svg">
<path d="M18.7774 9.37749C18.7737 10.9843 18.4248 12.4019 17.7198 13.7193C17.0555 14.9625 16.1389 15.9978 14.9848 16.8142C13.9717 17.5304 12.8621 18.0203 11.6487 18.2726C10.3053 18.5509 8.96195 18.5212 7.62972 18.2021C6.92464 18.0314 6.24925 17.7716 5.61468 17.4265C5.50706 17.3671 5.41429 17.3634 5.29925 17.4005C3.90023 17.8496 2.5012 18.2949 1.10218 18.7402C0.942607 18.7921 0.786748 18.8404 0.627178 18.8998C0.515849 18.9406 0.508428 18.8998 0.538115 18.807C0.701396 18.3283 0.860967 17.8496 1.02425 17.3671C1.37308 16.3244 1.7219 15.2816 2.07815 14.2425C2.1264 14.1052 2.05589 14.0162 2.00022 13.9197C1.56233 13.1589 1.25062 12.35 1.05765 11.4964C0.63831 9.65581 0.786748 7.8523 1.49183 6.10445C1.90003 5.09507 2.48265 4.1896 3.22855 3.38804C4.17855 2.36382 5.30296 1.6105 6.60179 1.10581C7.81526 0.634525 9.06956 0.452689 10.361 0.530619C12.1311 0.638236 13.7416 1.22456 15.1555 2.29331C16.985 3.67378 18.1354 5.48843 18.5955 7.74097C18.718 8.31617 18.7625 8.89878 18.7774 9.37749ZM9.74124 2.03355C9.39612 2.0187 8.99163 2.05953 8.58714 2.1189C8.42757 2.14117 8.27171 2.17456 8.11585 2.21538C5.70374 2.82769 3.97073 4.26753 2.95022 6.53492C2.36019 7.84488 2.20062 9.22906 2.42327 10.6466C2.59769 11.7673 3.01331 12.799 3.66272 13.7304C3.73323 13.8343 3.74437 13.9234 3.70355 14.0384C3.42894 14.8437 3.16175 15.6527 2.89085 16.4617C2.87601 16.5062 2.83148 16.5582 2.8723 16.599C2.91312 16.6435 2.96507 16.5953 3.0096 16.5804C3.8223 16.3207 4.63499 16.0646 5.44026 15.7937C5.62581 15.7306 5.75941 15.7603 5.91898 15.8568C7.74105 16.9515 9.68929 17.241 11.7414 16.6955C13.3 16.2835 14.584 15.4337 15.6008 14.1794C16.5842 12.966 17.1334 11.5781 17.2448 10.0269C17.3301 8.8357 17.1446 7.67788 16.6696 6.57203C16.0721 5.18042 15.1407 4.06714 13.8826 3.2396C12.6506 2.43062 11.2887 2.01499 9.74124 2.03355Z" fill="#282828"/>
<path d="M5.3103 7.33275C5.32515 6.49779 5.65171 5.81126 6.28999 5.27689C6.47183 5.12474 6.69077 5.06165 6.93198 5.10247C7.03589 5.11732 7.14351 5.13216 7.2437 5.12103C7.49604 5.10247 7.64077 5.24349 7.7187 5.4513C7.9562 6.07474 8.18628 6.70189 8.42007 7.32533C8.4646 7.44408 8.45347 7.55169 8.3978 7.66302C8.25308 7.96361 8.023 8.1974 7.79292 8.43119C7.59253 8.63529 7.5814 8.70208 7.7187 8.95072C8.38296 10.1531 9.29956 11.0882 10.5687 11.656C10.6318 11.682 10.6875 11.7265 10.7468 11.7525C10.9064 11.8304 11.0511 11.823 11.1847 11.6857C11.4445 11.4222 11.6857 11.1402 11.9195 10.8507C12.1013 10.6244 12.1867 10.591 12.4427 10.706C13.0662 10.9954 13.6599 11.3331 14.2648 11.6597C14.4652 11.7673 14.4875 11.9158 14.4578 12.1867C14.3353 13.2888 13.4929 13.7898 12.5318 13.9494C12.2089 14.0013 11.9046 13.9716 11.6003 13.8751C10.7097 13.5931 9.83394 13.2665 9.04722 12.7544C8.31245 12.2757 7.68159 11.6783 7.12866 10.9992C6.59058 10.3349 6.11187 9.63353 5.71479 8.87279C5.49214 8.43861 5.3103 7.76322 5.3103 7.33275Z" fill="#282828"/>
</svg>
